<?xml version="1.0" standalone="no"?><!DOCTYPE svg PUBLIC "-//W3C//DTD SVG 1.1//EN" "http://www.w3.org/Graphics/SVG/1.1/DTD/svg11.dtd"><svg t="1693229077667" class="icon" viewBox="0 0 1024 1024" version="1.1" xmlns="http://www.w3.org/2000/svg" p-id="1858" data-spm-anchor-id="a313x.search_index.0.i6.41bf3a81tuVD1N" xmlns:xlink="http://www.w3.org/1999/xlink" width="200" height="200"><path d="M528.406 66.185h97.912S614.8 123.781 614.8 164.098s4.32 135.829 10.56 181.425h-97.913s13.418-103.742 12.477-183.585c-0.359-30.598-11.518-95.753-11.518-95.753zM528.406 372.882h97.912S614.8 430.477 614.8 470.795c0 40.316 4.32 135.826 10.56 181.425h-97.913s13.418-103.745 12.477-183.586c-0.359-30.598-11.518-95.752-11.518-95.752zM528.406 678.137h97.912S614.8 735.734 614.8 776.05c0 40.316 4.32 135.827 10.56 181.426h-97.913s13.418-103.746 12.477-183.586c-0.359-30.598-11.518-95.753-11.518-95.753zM390.178 678.137h97.913s-11.52 57.597-11.52 97.913c0 40.316 4.32 135.827 10.56 181.426h-97.913s13.418-103.746 12.478-183.586c-0.359-30.598-11.518-95.753-11.518-95.753zM387.298 450.158h100.793s-11.52 41.366-11.52 70.321c0 28.959 1.44 78.466 9.601 129.823h-95.034s8.618-76.09 7.678-133.432c-0.36-21.976-11.518-66.712-11.518-66.712zM773.187 571.107s12.477-76.797 68.152-107.512c55.678-30.717 116.154-68.155 116.154-68.155s-9.6 70.073-77.754 131.51c-68.152 61.437-106.552 44.157-106.552 44.157zM705.035 621.983s46.075-18.242 77.753-14.399c31.678 3.841 120.95 41.275 129.591 45.114 0 0-79.677 39.358-154.552 11.52-74.875-27.837-52.792-42.235-52.792-42.235zM723.27 401.2s-25.918 103.673-28.798 128.63c-2.88 24.955 18.239 63.353 31.676 71.993 0 0 38.398-20.158 32.64-79.672-5.759-59.517-25.917-108.472-35.518-120.952z" fill="#0d801e" p-id="1859" data-spm-anchor-id="a313x.search_index.0.i0.41bf3a81tuVD1N" class=""></path><path d="M620.2 668.778l160.664-104.392 7.442 5.282-161.628 107.03zM378.12 251.564s-9.232-77.251-63.566-110.285c-54.335-33.037-113.178-72.985-113.178-72.985s6.641 70.415 72.147 134.668c65.506 64.248 104.596 48.602 104.596 48.602zM444.071 305.265s-45.267-20.164-77.077-17.66c-31.813 2.502-122.583 36.145-131.374 39.619 0 0 77.944 42.675 153.924 18.015 75.98-24.657 54.527-39.974 54.527-39.974zM435.146 83.912s21.532 104.67 23.36 129.728c1.825 25.054-20.892 62.53-34.684 70.595 0 0-37.514-21.755-29.253-80.977 8.26-59.22 30.464-107.284 40.577-119.346z" fill="#0d801e" p-id="1860" data-spm-anchor-id="a313x.search_index.0.i8.41bf3a81tuVD1N" class="selected"></path><path d="M541.191 366.045l-170.46-121.517-7.655 4.962 172.052 123.392zM244.177 602.254s-20.4-63.572-71.574-82.527C121.43 500.778 65.33 476.74 65.33 476.74s17.1 58.236 82.787 101.661c65.684 43.423 96.059 23.853 96.059 23.853zM308.513 636.719s-41.43-9.59-67.818-2.285c-26.392 7.307-97.364 50.481-104.203 54.846 0 0 72.638 23.215 132.617-9.979 59.98-33.183 39.404-42.582 39.404-42.582zM264.823 451.696S300.065 536.36 305.7 557.17c5.631 20.804-7.38 56.09-17.682 65.137 0 0-35.158-12.197-37.877-63.44-2.718-51.24 8.133-95.357 14.682-107.172z" fill="#0d801e" p-id="1861" data-spm-anchor-id="a313x.search_index.0.i7.41bf3a81tuVD1N" class="selected"></path><path d="M400.264 672.051l-163.46-74.52-5.64 5.435L396.272 678.8z" fill="#335c25" p-id="1862"></path></svg>